<?xml version="1.0" encoding="UTF-8" standalone="no"?>
<svg
   xmlns:dc="http://purl.org/dc/elements/1.1/"
   xmlns:cc="http://creativecommons.org/ns#"
   xmlns:rdf="http://www.w3.org/1999/02/22-rdf-syntax-ns#"
   xmlns:svg="http://www.w3.org/2000/svg"
   xmlns="http://www.w3.org/2000/svg"
   xmlns:sodipodi="http://sodipodi.sourceforge.net/DTD/sodipodi-0.dtd"
   xmlns:inkscape="http://www.inkscape.org/namespaces/inkscape"
   contentScriptType="text/ecmascript"
   contentStyleType="text/css"
   enable-background="new 0 0 2048 2048"
   height="1536"
   id="Layer_1"
   preserveAspectRatio="xMidYMid meet"
   version="1.1"
   viewBox="0 0 1536 1536"
   width="1536"
   xml:space="preserve"
   zoomAndPan="magnify"
   sodipodi:docname="arrow-circle.svg"
   inkscape:version="0.92.4 (5da689c313, 2019-01-14)"><metadata
     id="metadata26"><rdf:RDF><cc:Work
         rdf:about=""><dc:format>image/svg+xml</dc:format><dc:type
           rdf:resource="http://purl.org/dc/dcmitype/StillImage" /><dc:title></dc:title></cc:Work></rdf:RDF></metadata><defs
     id="defs24" /><sodipodi:namedview
     pagecolor="#ffffff"
     bordercolor="#666666"
     
     borderopacity="1"
     objecttolerance="10"
     gridtolerance="10"
     guidetolerance="10"
     inkscape:pageopacity="0"
     inkscape:pageshadow="2"
     inkscape:window-width="1366"
     inkscape:window-height="706"
     id="namedview22"
     showgrid="false"
     fit-margin-top="0"
     fit-margin-left="0"
     fit-margin-right="0"
     fit-margin-bottom="0"
     inkscape:zoom="0.26220703"
     inkscape:cx="768"
     inkscape:cy="768"
     inkscape:window-x="-8"
     inkscape:window-y="-8"
     inkscape:window-maximized="1"
     inkscape:current-layer="Layer_1" /><path
     d="m 717,1267 454,-454 c 12.667,-12.667 19,-27.667 19,-45 0,-17.333 -6.333,-32.333 -19,-45 L 717,269 c -12.667,-12.667 -27.667,-19 -45,-19 -17.333,0 -32.333,6.333 -45,19 L 525,371 c -12.667,12.667 -19,27.667 -19,45 0,17.333 6.333,32.333 19,45 l 307,307 -307,307 c -12.667,12.667 -19,27.667 -19,45 0,17.333 6.333,32.333 19,45 l 102,102 c 12.667,12.667 27.667,19 45,19 17.333,0 32.333,-6.333 45,-19 z m 819,-499 c 0,139.333 -34.333,267.833 -103,385.5 -68.667,117.667 -161.833,210.833 -279.5,279.5 -117.667,68.667 -246.167,103 -385.5,103 -139.333,0 -267.833,-34.333 -385.5,-103 C 264.833,1364.333 171.667,1271.167 103,1153.5 34.333,1035.833 0,907.333 0,768 0,628.667 34.333,500.167 103,382.5 171.667,264.833 264.833,171.667 382.5,103 500.167,34.333 628.667,0 768,0 c 139.333,0 267.833,34.333 385.5,103 117.667,68.667 210.833,161.833 279.5,279.5 68.667,117.667 103,246.167 103,385.5 z"
     id="path19"
     inkscape:connector-curvature="0" fill="#7269d3" /></svg>