<?xml version="1.0" encoding="UTF-8" standalone="no"?>
<svg
   xmlns:dc="http://purl.org/dc/elements/1.1/"
   xmlns:cc="http://creativecommons.org/ns#"
   xmlns:rdf="http://www.w3.org/1999/02/22-rdf-syntax-ns#"
   xmlns:svg="http://www.w3.org/2000/svg"
   xmlns="http://www.w3.org/2000/svg"
   xmlns:sodipodi="http://sodipodi.sourceforge.net/DTD/sodipodi-0.dtd"
   xmlns:inkscape="http://www.inkscape.org/namespaces/inkscape"
   enable-background="new 0 0 26 26"
   id="Слой_1"
   version="1.1"
   viewBox="0 0 24 18.017578"
   xml:space="preserve"
   sodipodi:docname="icon-filter.svg"
   width="24"
   height="18.017578"
   inkscape:version="0.92.4 (5da689c313, 2019-01-14)"><metadata
     id="metadata56"><rdf:RDF><cc:Work
         rdf:about=""><dc:format>image/svg+xml</dc:format><dc:type
           rdf:resource="http://purl.org/dc/dcmitype/StillImage" /><dc:title></dc:title></cc:Work></rdf:RDF></metadata><defs
     id="defs54" /><sodipodi:namedview
     pagecolor="#ffffff"
     bordercolor="#666666"
     borderopacity="1"
     objecttolerance="10"
     gridtolerance="10"
     guidetolerance="10"
     inkscape:pageopacity="0"
     inkscape:pageshadow="2"
     inkscape:window-width="1366"
     inkscape:window-height="706"
     id="namedview52"
     showgrid="false"
     fit-margin-top="0"
     fit-margin-left="0"
     fit-margin-right="0"
     fit-margin-bottom="0"
     inkscape:zoom="9.0769231"
     inkscape:cx="12"
     inkscape:cy="9.0087891"
     inkscape:window-x="-8"
     inkscape:window-y="-8"
     inkscape:window-maximized="1"
     inkscape:current-layer="Слой_1" /><g
     id="g49"
     transform="translate(-1,-3.9912109)"><path
       d="m 1.75,7.75 h 6.6803589 c 0.3355713,1.2952271 1.5039063,2.258789 2.9026491,2.258789 1.398742,0 2.567077,-0.9635619 2.902649,-2.258789 H 24.25 C 24.664062,7.75 25,7.4140625 25,7 25,6.5859375 24.664062,6.25 24.25,6.25 H 14.235657 C 13.900085,4.9547729 12.73175,3.9912109 11.333008,3.9912109 9.9342652,3.9912109 8.7659302,4.9547729 8.4303589,6.25 H 1.75 C 1.3359375,6.25 1,6.5859375 1,7 1,7.4140625 1.3359375,7.75 1.75,7.75 Z m 9.583008,-2.2587891 c 0.832031,0 1.508789,0.6767578 1.508789,1.5087891 0,0.8320313 -0.676758,1.5087891 -1.508789,1.5087891 -0.832031,0 -1.5087892,-0.6767578 -1.5087892,-1.5087891 0,-0.8320313 0.6767582,-1.5087891 1.5087892,-1.5087891 z"
       id="path43"
       inkscape:connector-curvature="0"
       style="fill:#5f2fb6" /><path
       d="m 24.25,12.25 h -1.60614 c -0.335571,-1.295227 -1.503906,-2.2587891 -2.902649,-2.2587891 -1.398743,0 -2.567078,0.9635621 -2.902649,2.2587891 H 1.75 C 1.3359375,12.25 1,12.585938 1,13 c 0,0.414063 0.3359375,0.75 0.75,0.75 h 15.088562 c 0.335571,1.295227 1.503906,2.258789 2.902649,2.258789 1.398742,0 2.567077,-0.963562 2.902649,-2.258789 H 24.25 C 24.664062,13.75 25,13.414063 25,13 25,12.585938 24.664062,12.25 24.25,12.25 Z m -4.508789,2.258789 c -0.832031,0 -1.508789,-0.676758 -1.508789,-1.508789 0,-0.832031 0.676758,-1.508789 1.508789,-1.508789 0.832031,0 1.508789,0.676758 1.508789,1.508789 0,0.832031 -0.676758,1.508789 -1.508789,1.508789 z"
       id="path45"
       inkscape:connector-curvature="0"
       style="fill:#5f2fb6" /><path
       d="M 24.25,18.25 H 9.7181396 C 9.3826293,16.954773 8.2143554,15.991211 6.8164062,15.991211 c -1.3987427,0 -2.5670776,0.963562 -2.9026489,2.258789 H 1.75 C 1.3359375,18.25 1,18.585937 1,19 c 0,0.414062 0.3359375,0.75 0.75,0.75 h 2.1637573 c 0.3355713,1.295227 1.5039063,2.258789 2.9026489,2.258789 1.3979492,0 2.5662231,-0.963562 2.9017334,-2.258789 H 24.25 C 24.664062,19.75 25,19.414062 25,19 25,18.585937 24.664062,18.25 24.25,18.25 Z M 6.8164063,20.508789 C 5.984375,20.508789 5.3076172,19.832031 5.3076172,19 c 0,-0.832031 0.6767578,-1.508789 1.5087891,-1.508789 0.8310547,0 1.5078125,0.676758 1.5078125,1.508789 0,0.832031 -0.6767579,1.508789 -1.5078125,1.508789 z"
       id="path47"
       inkscape:connector-curvature="0"
       style="fill:#5f2fb6" /></g></svg>