<?xml version="1.0" encoding="UTF-8" standalone="no"?>
<svg
   xmlns:dc="http://purl.org/dc/elements/1.1/"
   xmlns:cc="http://creativecommons.org/ns#"
   xmlns:rdf="http://www.w3.org/1999/02/22-rdf-syntax-ns#"
   xmlns:svg="http://www.w3.org/2000/svg"
   xmlns="http://www.w3.org/2000/svg"
   xmlns:sodipodi="http://sodipodi.sourceforge.net/DTD/sodipodi-0.dtd"
   xmlns:inkscape="http://www.inkscape.org/namespaces/inkscape"
   data-name="Layer 1"
   id="Layer_1"
   viewBox="0 0 229.52 241"
   version="1.1"
   sodipodi:docname="iconfinder_clock_job.svg"
   width="229.52"
   height="241"
   inkscape:version="0.92.4 (5da689c313, 2019-01-14)">
  <metadata
     id="metadata83">
    <rdf:RDF>
      <cc:Work
         rdf:about="">
        <dc:format>image/svg+xml</dc:format>
        <dc:type
           rdf:resource="http://purl.org/dc/dcmitype/StillImage" />
        <dc:title></dc:title>
      </cc:Work>
    </rdf:RDF>
  </metadata>
  <sodipodi:namedview
     pagecolor="#ffffff"
     bordercolor="#666666"
     borderopacity="1"
     objecttolerance="10"
     gridtolerance="10"
     guidetolerance="10"
     inkscape:pageopacity="0"
     inkscape:pageshadow="2"
     inkscape:window-width="1366"
     inkscape:window-height="706"
     id="namedview81"
     showgrid="false"
     fit-margin-top="0"
     fit-margin-left="0"
     fit-margin-right="0"
     fit-margin-bottom="0"
     inkscape:zoom="2.0976562"
     inkscape:cx="114"
     inkscape:cy="120.50001"
     inkscape:window-x="-8"
     inkscape:window-y="-8"
     inkscape:window-maximized="1"
     inkscape:current-layer="Layer_1" />
  <defs
     id="defs12">
    <style
       id="style10">.cls-1{fill:#effafe;}.cls-2{fill:#eb5639;}.cls-3{fill:#40bdff;}.cls-4{fill:#2197f7;}.cls-5{fill:#e4ebed;}.cls-6{fill:#fd0;}.cls-7{fill:#efc803;}.cls-8{fill:#d84936;}.cls-9{fill:#263238;}</style>
  </defs>
  <path
     class="cls-1"
     d="M 44.61,183.28 H 170.17 V 57.720005 H 44.61 Z M 164.56,120.5 a 8.61,8.61 0 1 1 -8.61,-8.61 8.62,8.62 0 0 1 8.61,8.61 z m -57.17,39.95 a 8.61,8.61 0 1 1 -8.61,8.61 8.62,8.62 0 0 1 8.61,-8.61 z m 2.36,-31.68 -0.36,0.1 v 19.36 a 2,2 0 0 1 -4,0 v -19.36 l -0.36,-0.1 a 8.6,8.6 0 0 1 0,-16.54 l 0.36,-0.1 V 87.130005 a 2,2 0 0 1 4,0 V 112.13 l 0.36,0.1 a 8.6,8.6 0 0 1 0,16.54 z m -2.36,-48.269995 a 8.61,8.61 0 1 1 8.61,-8.56 8.62,8.62 0 0 1 -8.61,8.56 z M 67.44,120.5 a 8.61,8.61 0 1 1 -8.61,-8.61 8.62,8.62 0 0 1 8.61,8.61 z"
     id="path16"
     inkscape:connector-curvature="0"
     style="fill:#effafe" />
  <circle
     class="cls-2"
     cx="107.39"
     cy="120.50001"
     r="4.6100001"
     id="circle18"
     style="fill:#eb5639" />
  <circle
     class="cls-3"
     cx="58.830002"
     cy="120.50001"
     r="4.6100001"
     id="circle20"
     style="fill:#40bdff" />
  <circle
     class="cls-3"
     cx="107.39"
     cy="71.94001"
     r="4.6100001"
     id="circle22"
     style="fill:#40bdff" />
  <circle
     class="cls-3"
     cx="107.39"
     cy="169.06"
     r="4.6100001"
     id="circle24"
     style="fill:#40bdff" />
  <path
     class="cls-3"
     d="m 63.44,230.44 a 8,8 0 0 0 7.76,6.06 h 80.38 a 8,8 0 0 0 7.76,-6.06 l 7.49,-29.94 H 56 Z"
     id="path26"
     inkscape:connector-curvature="0"
     style="fill:#40bdff" />
  <path
     class="cls-3"
     d="M 159.34,10.560005 A 8,8 0 0 0 151.58,4.5000049 H 71.2 a 8,8 0 0 0 -7.76,6.0600001 l -7.44,29.94 h 110.83 z"
     id="path28"
     inkscape:connector-curvature="0"
     style="fill:#40bdff" />
  <path
     class="cls-4"
     d="m 156.83,200.5 -7.49,29.94 a 8,8 0 0 1 -7.76,6.06 h 10 a 8,8 0 0 0 7.76,-6.06 l 7.49,-29.94 z"
     id="path30"
     inkscape:connector-curvature="0"
     style="fill:#2197f7" />
  <path
     class="cls-4"
     d="m 159.34,10.560005 a 8,8 0 0 0 -7.76,-6.0600001 h -10 a 8,8 0 0 1 7.76,6.0600001 l 7.49,29.94 h 10 z"
     id="path32"
     inkscape:connector-curvature="0"
     style="fill:#2197f7" />
  <circle
     class="cls-3"
     cx="155.95"
     cy="120.50001"
     r="4.6100001"
     id="circle34"
     style="fill:#40bdff" />
  <path
     class="cls-3"
     d="m 192,115.89 h -4.61 v 9.22 H 192 a 4.61,4.61 0 1 0 0,-9.22 z"
     id="path36"
     inkscape:connector-curvature="0"
     style="fill:#40bdff" />
  <rect
     class="cls-5"
     height="125.56"
     width="5"
     x="165.17"
     y="57.720005"
     id="rect38"
     style="fill:#e4ebed" />
  <path
     class="cls-6"
     d="m 175.39,44.500005 h -131 a 8,8 0 0 0 -8,8 V 188.5 a 8,8 0 0 0 8,8 h 131 a 8,8 0 0 0 8,-8 V 52.500005 a 8,8 0 0 0 -8,-8 z m -1.22,11.22 V 185.28 a 2,2 0 0 1 -2,2 H 42.61 a 2,2 0 0 1 -2,-2 V 55.720005 a 2,2 0 0 1 2,-2 h 129.56 a 2,2 0 0 1 2,2 z"
     id="path40"
     inkscape:connector-curvature="0"
     style="fill:#ffdd00" />
  <path
     class="cls-4"
     d="m 58.83,115.89 a 4.59,4.59 0 0 0 -1,0.12 4.6,4.6 0 0 1 0,9 4.61,4.61 0 1 0 1,-9.1 z"
     id="path42"
     inkscape:connector-curvature="0"
     style="fill:#2197f7" />
  <path
     class="cls-4"
     d="m 107.39,67.330005 a 4.59,4.59 0 0 0 -1,0.12 4.6,4.6 0 0 1 0,9 4.61,4.61 0 1 0 1,-9.1 z"
     id="path44"
     inkscape:connector-curvature="0"
     style="fill:#2197f7" />
  <path
     class="cls-4"
     d="m 107.39,164.45 a 4.59,4.59 0 0 0 -1,0.12 4.6,4.6 0 0 1 0,9 4.61,4.61 0 1 0 1,-9.1 z"
     id="path46"
     inkscape:connector-curvature="0"
     style="fill:#2197f7" />
  <path
     class="cls-4"
     d="m 155.95,115.89 a 4.59,4.59 0 0 0 -1,0.12 4.6,4.6 0 0 1 0,9 4.61,4.61 0 1 0 1,-9.1 z"
     id="path48"
     inkscape:connector-curvature="0"
     style="fill:#2197f7" />
  <path
     class="cls-7"
     d="m 175.39,44.500005 h -5 a 8,8 0 0 1 8,8 V 188.5 a 8,8 0 0 1 -8,8 h 5 a 8,8 0 0 0 8,-8 V 52.500005 a 8,8 0 0 0 -8,-8 z"
     id="path50"
     inkscape:connector-curvature="0"
     style="fill:#efc803" />
  <path
     class="cls-8"
     d="m 107.39,115.89 a 4.58,4.58 0 0 0 -1,0.12 4.6,4.6 0 0 1 0,9 4.6,4.6 0 1 0 1,-9.1 z"
     id="path52"
     inkscape:connector-curvature="0"
     style="fill:#d84936" />
  <path
     class="cls-6"
     d="m 203.61,172.67 v -4 h 4 a 1,1 0 0 0 0,-2 h -4 v -4 a 1,1 0 1 0 -2,0 v 4 h -4 a 1,1 0 0 0 0,2 h 4 v 4 a 1,1 0 0 0 2,0 z"
     id="path54"
     inkscape:connector-curvature="0"
     style="fill:#ffdd00" />
  <path
     class="cls-3"
     d="m 7,213.5 v -4 h 4 a 1,1 0 0 0 0,-2 H 7 v -4 a 1,1 0 0 0 -2,0 v 4 H 1 a 1,1 0 0 0 0,2 h 4 v 4 a 1,1 0 0 0 2,0 z"
     id="path56"
     inkscape:connector-curvature="0"
     style="fill:#40bdff" />
  <path
     class="cls-6"
     d="m 196.11,24.000005 v -2.59 l 1.83,1.83 a 1,1 0 0 0 1.41,-1.41 l -1.83,-1.83 h 2.59 a 1,1 0 0 0 0,-2 h -2.59 l 1.83,-1.83 a 1,1 0 0 0 -1.41,-1.41 l -1.83,1.83 v -2.59 a 1,1 0 0 0 -2,0 v 2.59 l -1.83,-1.83 a 1,1 0 1 0 -1.41,1.41 l 1.83,1.83 h -2.59 a 1,1 0 0 0 0,2 h 2.59 l -1.83,1.83 a 1,1 0 0 0 1.41,1.41 l 1.83,-1.83 v 2.59 a 1,1 0 1 0 2,0 z"
     id="path58"
     inkscape:connector-curvature="0"
     style="fill:#ffdd00" />
  <path
     class="cls-3"
     d="m 217.52,94.340005 a 6,6 0 1 1 6,5.999995 6,6 0 0 1 -6,-5.999995 z m 10,0 a 4,4 0 1 0 -4,4 4,4 0 0 0 4,-4 z"
     id="path60"
     inkscape:connector-curvature="0"
     style="fill:#40bdff" />
  <path
     class="cls-3"
     d="m 212.58,222.67 a 6,6 0 1 1 6,6 6,6 0 0 1 -6,-6 z m 10,0 a 4,4 0 1 0 -4,4 4,4 0 0 0 4,-4 z"
     id="path62"
     inkscape:connector-curvature="0"
     style="fill:#40bdff" />
  <path
     class="cls-6"
     d="m 9,111.39 a 6,6 0 1 1 6,6 6,6 0 0 1 -6,-6 z m 10,0 a 4,4 0 1 0 -4,4 4,4 0 0 0 4,-4 z"
     id="path64"
     inkscape:connector-curvature="0"
     style="fill:#ffdd00" />
  <path
     class="cls-9"
     d="M 172.17,53.220005 H 42.61 a 2.5,2.5 0 0 0 -2.5,2.5 V 185.28 a 2.5,2.5 0 0 0 2.5,2.5 h 129.56 a 2.5,2.5 0 0 0 2.5,-2.5 V 55.720005 a 2.5,2.5 0 0 0 -2.5,-2.5 z M 169.67,182.78 H 45.11 V 58.220005 h 124.56 z"
     id="path66"
     inkscape:connector-curvature="0"
     style="fill:#263238" />
  <path
     class="cls-9"
     d="m 107.39,81.050005 a 9.11,9.11 0 1 0 -9.11,-9.11 9.12,9.12 0 0 0 9.11,9.11 z m 0,-13.22 a 4.11,4.11 0 1 1 -4.11,4.11 4.11,4.11 0 0 1 4.11,-4.11 z"
     id="path68"
     inkscape:connector-curvature="0"
     style="fill:#263238" />
  <path
     class="cls-9"
     d="m 107.39,178.17 a 9.11,9.11 0 1 0 -9.11,-9.11 9.12,9.12 0 0 0 9.11,9.11 z m 0,-13.22 a 4.11,4.11 0 1 1 -4.11,4.11 4.11,4.11 0 0 1 4.11,-4.11 z"
     id="path70"
     inkscape:connector-curvature="0"
     style="fill:#263238" />
  <path
     class="cls-9"
     d="m 155.95,129.61 a 9.11,9.11 0 1 0 -9.11,-9.11 9.12,9.12 0 0 0 9.11,9.11 z m 0,-13.22 a 4.11,4.11 0 1 1 -4.11,4.11 4.11,4.11 0 0 1 4.11,-4.11 z"
     id="path72"
     inkscape:connector-curvature="0"
     style="fill:#263238" />
  <path
     class="cls-9"
     d="m 58.83,129.61 a 9.11,9.11 0 1 0 -9.11,-9.11 9.12,9.12 0 0 0 9.11,9.11 z m 0,-13.22 a 4.11,4.11 0 1 1 -4.11,4.11 4.11,4.11 0 0 1 4.11,-4.11 z"
     id="path74"
     inkscape:connector-curvature="0"
     style="fill:#263238" />
  <path
     class="cls-9"
     d="m 107.39,150.73 a 2.5,2.5 0 0 0 2.5,-2.5 v -19 a 9.1,9.1 0 0 0 0,-17.5 V 87.160005 a 2.5,2.5 0 0 0 -5,0 V 111.75 a 9.1,9.1 0 0 0 0,17.5 v 19 a 2.5,2.5 0 0 0 2.5,2.48 z m -4.11,-30.23 a 4.11,4.11 0 1 1 4.11,4.11 4.11,4.11 0 0 1 -4.11,-4.11 z"
     id="path76"
     inkscape:connector-curvature="0"
     style="fill:#263238" />
  <path
     class="cls-9"
     d="m 192,111.39 h -4.11 V 52.500005 a 12.51,12.51 0 0 0 -12.5,-12.5 h -8 L 159.71,9.5000049 A 12.48,12.48 0 0 0 147.58,4.8525513e-6 H 67.2 A 12.48,12.48 0 0 0 55.07,9.5000049 L 47.44,40.000005 h -8 a 12.51,12.51 0 0 0 -12.55,12.5 V 188.5 a 12.51,12.51 0 0 0 12.5,12.5 h 8 l 7.68,30.5 A 12.48,12.48 0 0 0 67.2,241 h 80.38 a 12.48,12.48 0 0 0 12.13,-9.5 l 7.63,-30.53 h 8 a 12.51,12.51 0 0 0 12.5,-12.5 V 129.61 H 192 a 9.11,9.11 0 1 0 0,-18.22 z M 59.92,10.680005 A 7.49,7.49 0 0 1 67.2,5.0000049 h 80.38 a 7.49,7.49 0 0 1 7.28,5.6800001 l 7.33,29.32 H 52.59 Z M 154.86,230.32 A 7.49,7.49 0 0 1 147.58,236 H 67.2 a 7.49,7.49 0 0 1 -7.28,-5.68 L 52.59,201 h 109.6 z m 28,-41.82 a 7.51,7.51 0 0 1 -7.5,7.5 h -136 a 7.51,7.51 0 0 1 -7.5,-7.5 V 52.500005 a 7.51,7.51 0 0 1 7.5,-7.5 h 136 a 7.51,7.51 0 0 1 7.5,7.5 z M 192,124.61 h -4.11 v -8.22 H 192 a 4.11,4.11 0 1 1 0,8.22 z"
     id="path78"
     inkscape:connector-curvature="0"
     style="fill:#263238" />
</svg>
