<?xml version="1.0" encoding="UTF-8" standalone="no"?>
<svg
   xmlns:dc="http://purl.org/dc/elements/1.1/"
   xmlns:cc="http://creativecommons.org/ns#"
   xmlns:rdf="http://www.w3.org/1999/02/22-rdf-syntax-ns#"
   xmlns:svg="http://www.w3.org/2000/svg"
   xmlns="http://www.w3.org/2000/svg"
   xmlns:sodipodi="http://sodipodi.sourceforge.net/DTD/sodipodi-0.dtd"
   xmlns:inkscape="http://www.inkscape.org/namespaces/inkscape"
   data-name="Layer 1"
   id="Layer_1"
   viewBox="0 0 240.94 233.37"
   version="1.1"
   sodipodi:docname="lapton.svg"
   width="240.94"
   height="233.37"
   inkscape:version="0.92.4 (5da689c313, 2019-01-14)">
  <metadata
     id="metadata680">
    <rdf:RDF>
      <cc:Work
         rdf:about="">
        <dc:format>image/svg+xml</dc:format>
        <dc:type
           rdf:resource="http://purl.org/dc/dcmitype/StillImage" />
        <dc:title></dc:title>
      </cc:Work>
    </rdf:RDF>
  </metadata>
  <sodipodi:namedview
     pagecolor="#ffffff"
     bordercolor="#666666"
     borderopacity="1"
     objecttolerance="10"
     gridtolerance="10"
     guidetolerance="10"
     inkscape:pageopacity="0"
     inkscape:pageshadow="2"
     inkscape:window-width="1366"
     inkscape:window-height="706"
     id="namedview678"
     showgrid="false"
     fit-margin-top="0"
     fit-margin-left="0"
     fit-margin-right="0"
     fit-margin-bottom="0"
     inkscape:zoom="0.921875"
     inkscape:cx="120.44"
     inkscape:cy="116.67"
     inkscape:window-x="-8"
     inkscape:window-y="-8"
     inkscape:window-maximized="1"
     inkscape:current-layer="Layer_1" />
  <defs
     id="defs613">
    <style
       id="style611">.cls-1{fill:#40bdff;}.cls-2{fill:#fd0;}.cls-3{fill:#efc803;}.cls-4{fill:#2197f7;}.cls-5{fill:#effafe;}.cls-6{fill:#e4ebed;}.cls-7{fill:#263238;}</style>
  </defs>
  <path
     class="cls-1"
     d="m 10.25,192.59 h 230.38 l -18.62,-54 H 28.87 Z m 137.19,-8 a 2,2 0 0 1 -2,2 h -20 a 2,2 0 0 1 0,-4 h 20 a 2,2 0 0 1 2,2 z m -52,-2 h 20 a 2,2 0 1 1 0,4 h -20 a 2,2 0 0 1 0,-4 z"
     id="path617"
     inkscape:connector-curvature="0"
     style="fill:#40bdff" />
  <path
     class="cls-2"
     d="m 9.44,204.59 a 8,8 0 0 0 8,8 h 211 a 8,8 0 0 0 8,-8 v -8 h -227 z"
     id="path619"
     inkscape:connector-curvature="0"
     style="fill:#ffdd00" />
  <path
     class="cls-3"
     d="m 231.44,196.59 v 8 a 8,8 0 0 1 -8,8 h 5 a 8,8 0 0 0 8,-8 v -8 z"
     id="path621"
     inkscape:connector-curvature="0"
     style="fill:#efc803" />
  <path
     class="cls-1"
     d="m 44.44,114.64 h 6.16 v -3.37 c 0,-7 4.05,-13.91 12.31,-17.07 -2.66,-2.63 -4.31,-5.51 -4.31,-9.55 a 12.68,12.68 0 0 1 25.36,0 c 0,4.07 -1.68,6.94 -4.31,9.55 8.27,3.17 12.31,10.1 12.31,17.07 v 3.37 h 6.16 V 60.98 H 44.44 Z"
     id="path623"
     inkscape:connector-curvature="0"
     style="fill:#40bdff" />
  <rect
     class="cls-4"
     height="53.66"
     width="4"
     x="94.100006"
     y="60.98"
     id="rect625"
     style="fill:#2197f7" />
  <path
     class="cls-5"
     d="m 72.22,93.29 v 0 a 8.69,8.69 0 1 0 -1.89,0 z"
     id="path627"
     inkscape:connector-curvature="0"
     style="fill:#effafe" />
  <path
     class="cls-5"
     d="m 29.44,134.59 h 187 V 41.04 h -187 z m 90.66,-19.94 h 58.34 a 2,2 0 1 1 0,4 H 120.1 a 2,2 0 0 1 0,-4 z m 0,-18.44 h 78.34 a 2,2 0 0 1 0,4 H 120.1 a 2,2 0 0 1 0,-4 z M 198.44,81.76 H 120.1 a 2,2 0 0 1 0,-4 h 78.34 a 2,2 0 0 1 0,4 z m 0,-18.44 H 140.1 a 2,2 0 0 1 0,-4 h 58.34 a 2,2 0 0 1 0,4 z M 102.1,58.98 v 57.66 a 2,2 0 0 1 -2,2 H 42.44 a 2,2 0 0 1 -2,-2 V 58.98 a 2,2 0 0 1 2,-2 h 57.66 a 2,2 0 0 1 2,2 z"
     id="path629"
     inkscape:connector-curvature="0"
     style="fill:#effafe" />
  <path
     class="cls-1"
     d="m 216.44,28.81 a 8,8 0 0 0 -8,-8 h -171 a 8,8 0 0 0 -8,8 v 8.22 h 187 z"
     id="path631"
     inkscape:connector-curvature="0"
     style="fill:#40bdff" />
  <path
     class="cls-4"
     d="m 208.44,20.81 h -5 a 8,8 0 0 1 8,8 v 8.22 h 5 v -8.22 a 8,8 0 0 0 -8,-8 z"
     id="path633"
     inkscape:connector-curvature="0"
     style="fill:#2197f7" />
  <polygon
     class="cls-4"
     points="238.19,203.89 248.19,203.89 229.57,149.89 219.57,149.89 "
     id="polygon635"
     style="fill:#2197f7"
     transform="translate(-7.56,-11.3)" />
  <rect
     class="cls-6"
     height="93.550003"
     width="5"
     x="211.44"
     y="41.040001"
     id="rect637"
     style="fill:#e4ebed" />
  <path
     class="cls-5"
     d="m 73.95,97.29 h -5.36 a 14,14 0 0 0 -14,14 v 3.37 h 33.36 v -3.37 a 14,14 0 0 0 -14,-14 z"
     id="path639"
     inkscape:connector-curvature="0"
     style="fill:#effafe" />
  <path
     class="cls-6"
     d="m 71.27,75.98 a 8.64,8.64 0 0 0 -2,0.24 8.67,8.67 0 0 1 0,16.87 8.89,8.89 0 0 0 1.07,0.19 h 1.9 a 8.68,8.68 0 0 0 -1,-17.3 z"
     id="path641"
     inkscape:connector-curvature="0"
     style="fill:#e4ebed" />
  <path
     class="cls-6"
     d="m 73.95,97.29 h -4 a 14,14 0 0 1 14,14 v 3.37 h 4 v -3.37 a 14,14 0 0 0 -14,-14 z"
     id="path643"
     inkscape:connector-curvature="0"
     style="fill:#e4ebed" />
  <path
     class="cls-7"
     d="M 100.1,56.48 H 42.44 a 2.5,2.5 0 0 0 -2.5,2.5 v 57.66 a 2.5,2.5 0 0 0 2.5,2.5 h 57.66 a 2.5,2.5 0 0 0 2.5,-2.5 V 58.98 a 2.5,2.5 0 0 0 -2.5,-2.5 z M 87.44,114.14 H 55.1 v -2.87 A 13.51,13.51 0 0 1 68.59,97.78 h 5.37 a 13.51,13.51 0 0 1 13.48,13.5 z M 63.09,84.7 a 8.18,8.18 0 1 1 9.09,8.12 H 70.36 A 8.19,8.19 0 0 1 63.09,84.7 Z m 34.51,29.48 h -5.16 v -2.87 A 18.51,18.51 0 0 0 80.54,94.02 13.18,13.18 0 1 0 62,94.02 18.51,18.51 0 0 0 50.09,111.28 v 2.87 H 44.94 V 61.48 H 97.6 Z"
     id="path645"
     inkscape:connector-curvature="0"
     style="fill:#263238" />
  <path
     class="cls-7"
     d="m 240.91,194.25 a 2.47,2.47 0 0 0 -0.08,-0.36 c 0,0 0,-0.08 0,-0.11 l -19.86,-57.6 V 28.81 a 12.51,12.51 0 0 0 -12.53,-12.5 h -176 a 12.51,12.51 0 0 0 -12.5,12.5 v 107.36 l -19.86,57.6 c 0,0 0,0.08 0,0.11 A 2.47,2.47 0 0 0 0,194.24 c 0,0.07 0,0.14 0,0.21 0,0.07 0,0.09 0,0.13 v 10 a 12.51,12.51 0 0 0 12.44,12.51 h 216 a 12.51,12.51 0 0 0 12.5,-12.5 v -10 c 0,0 0,-0.09 0,-0.13 0,-0.04 -0.02,-0.14 -0.03,-0.21 z M 24.94,28.81 a 7.51,7.51 0 0 1 7.5,-7.5 h 176 a 7.51,7.51 0 0 1 7.5,7.5 v 7.72 h -191 z m 0,12.72 h 191 v 92.55 h -191 z m -0.72,97.55 h 192.44 l 18.28,53 h -229 z m 211.72,65.5 a 7.51,7.51 0 0 1 -7.5,7.5 h -216 a 7.51,7.51 0 0 1 -7.5,-7.5 v -7.5 h 231 z"
     id="path647"
     inkscape:connector-curvature="0"
     style="fill:#263238" />
  <path
     class="cls-7"
     d="m 115.44,182.09 h -20 a 2.5,2.5 0 0 0 0,5 h 20 a 2.5,2.5 0 1 0 0,-5 z"
     id="path649"
     inkscape:connector-curvature="0"
     style="fill:#263238" />
  <path
     class="cls-7"
     d="m 145.44,182.09 h -20 a 2.5,2.5 0 0 0 0,5 h 20 a 2.5,2.5 0 0 0 0,-5 z"
     id="path651"
     inkscape:connector-curvature="0"
     style="fill:#263238" />
  <path
     class="cls-7"
     d="M 198.44,58.82 H 140.1 a 2.5,2.5 0 0 0 0,5 h 58.34 a 2.5,2.5 0 0 0 0,-5 z"
     id="path653"
     inkscape:connector-curvature="0"
     style="fill:#263238" />
  <path
     class="cls-7"
     d="M 198.44,77.26 H 120.1 a 2.5,2.5 0 0 0 0,5 h 78.34 a 2.5,2.5 0 0 0 0,-5 z"
     id="path655"
     inkscape:connector-curvature="0"
     style="fill:#263238" />
  <path
     class="cls-7"
     d="M 198.44,95.7 H 120.1 a 2.5,2.5 0 0 0 0,5 h 78.34 a 2.5,2.5 0 0 0 0,-5 z"
     id="path657"
     inkscape:connector-curvature="0"
     style="fill:#263238" />
  <path
     class="cls-7"
     d="M 178.44,114.14 H 120.1 a 2.5,2.5 0 0 0 0,5 h 58.34 a 2.5,2.5 0 0 0 0,-5 z"
     id="path659"
     inkscape:connector-curvature="0"
     style="fill:#263238" />
  <path
     class="cls-2"
     d="m 110.27,5.13 h -4 v -4 a 1,1 0 1 0 -2,0 v 4 h -4 a 1,1 0 0 0 0,2 h 4 v 4 a 1,1 0 0 0 2,0 v -4 h 4 a 1,1 0 0 0 0,-2 z"
     id="path661"
     inkscape:connector-curvature="0"
     style="fill:#ffdd00" />
  <path
     class="cls-2"
     d="m 14.27,128.59 h -4 v -4 a 1,1 0 0 0 -2,0 v 4 h -4 a 1,1 0 1 0 0,2 h 4 v 4 a 1,1 0 0 0 2,0 v -4 h 4 a 1,1 0 1 0 0,-2 z"
     id="path663"
     inkscape:connector-curvature="0"
     style="fill:#ffdd00" />
  <path
     class="cls-2"
     d="m 17.44,226.37 h -4 v -4 a 1,1 0 0 0 -2,0 v 4 h -4 a 1,1 0 0 0 0,2 h 4 v 4 a 1,1 0 0 0 2,0 v -4 h 4 a 1,1 0 0 0 0,-2 z"
     id="path665"
     inkscape:connector-curvature="0"
     style="fill:#ffdd00" />
  <path
     class="cls-1"
     d="m 14.27,65.98 h -4 v -4 a 1,1 0 1 0 -2,0 v 4 h -4 a 1,1 0 0 0 0,2 h 4 v 4 a 1,1 0 1 0 2,0 v -4 h 4 a 1,1 0 0 0 0,-2 z"
     id="path667"
     inkscape:connector-curvature="0"
     style="fill:#40bdff" />
  <path
     class="cls-1"
     d="m 221.44,226.37 h -4 v -4 a 1,1 0 0 0 -2,0 v 4 h -4 a 1,1 0 0 0 0,2 h 4 v 4 a 1,1 0 0 0 2,0 v -4 h 4 a 1,1 0 0 0 0,-2 z"
     id="path669"
     inkscape:connector-curvature="0"
     style="fill:#40bdff" />
  <path
     class="cls-1"
     d="m 180.94,12 a 6,6 0 1 1 6,-6 6,6 0 0 1 -6,6 z m 0,-10 a 4,4 0 1 0 4,4 4,4 0 0 0 -4,-4 z"
     id="path671"
     inkscape:connector-curvature="0"
     style="fill:#40bdff" />
  <path
     class="cls-2"
     d="m 134.94,233.37 a 6,6 0 1 1 6,-6 6,6 0 0 1 -6,6 z m 0,-10 a 4,4 0 1 0 4,4 4,4 0 0 0 -4,-4 z"
     id="path673"
     inkscape:connector-curvature="0"
     style="fill:#ffdd00" />
  <path
     class="cls-2"
     d="m 230.44,53.04 a 6,6 0 1 1 6,-6 6,6 0 0 1 -6,6 z m 0,-10 a 4,4 0 1 0 4,4 4,4 0 0 0 -4,-4 z"
     id="path675"
     inkscape:connector-curvature="0"
     style="fill:#ffdd00" />
</svg>
