<?xml version="1.0" encoding="UTF-8" standalone="no"?>
<svg
   xmlns:dc="http://purl.org/dc/elements/1.1/"
   xmlns:cc="http://creativecommons.org/ns#"
   xmlns:rdf="http://www.w3.org/1999/02/22-rdf-syntax-ns#"
   xmlns:svg="http://www.w3.org/2000/svg"
   xmlns="http://www.w3.org/2000/svg"
   xmlns:sodipodi="http://sodipodi.sourceforge.net/DTD/sodipodi-0.dtd"
   xmlns:inkscape="http://www.inkscape.org/namespaces/inkscape"
   data-name="Layer 1"
   id="Layer_1"
   viewBox="0 0 240.99457 240.99646"
   version="1.1"
   sodipodi:docname="notes.svg"
   width="240.99457"
   height="240.99646"
   inkscape:version="0.92.4 (5da689c313, 2019-01-14)">
  <metadata
     id="metadata278">
    <rdf:RDF>
      <cc:Work
         rdf:about="">
        <dc:format>image/svg+xml</dc:format>
        <dc:type
           rdf:resource="http://purl.org/dc/dcmitype/StillImage" />
        <dc:title></dc:title>
      </cc:Work>
    </rdf:RDF>
  </metadata>
  <sodipodi:namedview
     pagecolor="#ffffff"
     bordercolor="#666666"
     borderopacity="1"
     objecttolerance="10"
     gridtolerance="10"
     guidetolerance="10"
     inkscape:pageopacity="0"
     inkscape:pageshadow="2"
     inkscape:window-width="1366"
     inkscape:window-height="706"
     id="namedview276"
     showgrid="false"
     fit-margin-top="0"
     fit-margin-left="0"
     fit-margin-right="0"
     fit-margin-bottom="0"
     inkscape:zoom="0.921875"
     inkscape:cx="120.49515"
     inkscape:cy="120.5013"
     inkscape:window-x="-8"
     inkscape:window-y="-8"
     inkscape:window-maximized="1"
     inkscape:current-layer="Layer_1" />
  <defs
     id="defs229">
    <style
       id="style227">.cls-1{fill:#40bdff;}.cls-2{fill:#effafe;}.cls-3{fill:#2197f7;}.cls-4{fill:#e4ebed;}.cls-5{fill:#fd0;}.cls-6{fill:#263238;}</style>
  </defs>
  <path
     class="cls-1"
     d="m 216.43515,61.245151 -1,0.09 -164.759999,150.159999 3.25,18.42 a 8,8 0 0 0 9.29,6.5 l 170.659999,-30.09 a 8,8 0 0 0 6.51,-9.29 z"
     id="path233"
     inkscape:connector-curvature="0"
     style="fill:#40bdff" />
  <path
     class="cls-2"
     d="M 22.115151,18.115151 V 199.43515 a 8,8 0 0 0 8,8 H 161.87515 v -47.56 a 2,2 0 0 1 2,-2 h 47.57 V 18.115151 Z"
     id="path235"
     inkscape:connector-curvature="0"
     style="fill:#effafe" />
  <path
     class="cls-3"
     d="m 240.37515,196.99515 -23.94,-135.749999 -4.06,-1.87 -3.82,8.23 22.82,129.389999 a 8,8 0 0 1 -6.51,9.29 l -166.599999,29.37 a 8,8 0 0 0 4.94,0.72 l 170.659999,-30.09 a 8,8 0 0 0 6.51,-9.29 z"
     id="path237"
     inkscape:connector-curvature="0"
     style="fill:#2197f7" />
  <path
     class="cls-4"
     d="M 202.43515,18.115151 V 157.87515 h 9 V 18.115151 Z"
     id="path239"
     inkscape:connector-curvature="0"
     style="fill:#e4ebed" />
  <rect
     class="cls-5"
     height="7.3499999"
     transform="rotate(-45)"
     width="34.32"
     x="-17.156763"
     y="55.614353"
     id="rect241"
     style="fill:#ffdd00" />
  <polygon
     class="cls-2"
     points="169.38,169.38 169.38,212.12 190.75,190.74 212.12,169.38 "
     id="polygon243"
     style="fill:#effafe"
     transform="translate(-7.5048492,-7.5048492)" />
  <polygon
     class="cls-4"
     points="169.38,207.12 169.38,212.12 190.75,190.74 212.12,169.38 207.12,169.38 185.75,190.74 "
     id="polygon245"
     style="fill:#e4ebed"
     transform="translate(-7.5048492,-7.5048492)" />
  <path
     class="cls-5"
     d="m 48.105151,29.885151 -22.61,-22.6500002 a 9.3762359,9.3762359 0 0 0 -13.26,13.2600002 l 22.65,22.61 z"
     id="path247"
     inkscape:connector-curvature="0"
     style="fill:#ffdd00" />
  <rect
     class="cls-5"
     height="7.3499999"
     transform="rotate(-45)"
     width="34.32"
     x="-17.156763"
     y="55.614353"
     id="rect249"
     style="fill:#ffdd00" />
  <path
     class="cls-5"
     d="m 48.105151,29.885151 -22.61,-22.6500002 a 9.3762359,9.3762359 0 0 0 -13.26,13.2600002 l 22.65,22.61 z"
     id="path251"
     inkscape:connector-curvature="0"
     style="fill:#ffdd00" />
  <path
     class="cls-6"
     d="m 211.93515,32.495151 v -16.38 a 2.5,2.5 0 0 0 -2.5,-2.5 H 33.195151 l -9.56,-9.5600002 A 13.845151,13.845151 0 0 0 4.0551508,23.635151 l 9.5600002,9.56 V 199.43515 a 12.53,12.53 0 0 0 12.52,12.52 h 16.05 l 3.3,18.7 a 12.51,12.51 0 0 0 14.5,10.15 l 170.659999,-30.09 a 12.52,12.52 0 0 0 10.16,-14.5 z m -204.3499992,-12.4 A 8.85,8.85 0 0 1 20.095151,7.5851508 l 22.3,22.3000002 -12.51,12.51 z m 43.9100002,7.8 4.49,4.49 -23.6,23.56 -4.49,-4.45 z m -7.17,178.999999 h -18.19 a 7.53,7.53 0 0 1 -7.52,-7.52 V 38.185151 l 7.74,7.74 -3.76,3.76 a 2.5,2.5 0 0 0 0,3.54 l 8,8 a 2.5,2.5 0 0 0 3.54,0 l 11.8,-11.73 14.28,14.25 a 2.503158,2.503158 0 1 0 3.54,-3.54 l -14.26,-14.27 11.75,-11.78 a 2.5,2.5 0 0 0 0,-3.54 l -8,-8 a 2.5,2.5 0 0 0 -3.54,0 l -3.76,3.76 -7.75,-7.76 H 206.93515 c 0,4.6 0,134.169999 0,138.759999 h -47.06 a 2.5,2.5 0 0 0 -2.5,2.5 v 47.07 z m 159.119999,-44.57 -20.55,20.56 -20.53,20.53 v -41 z m 26.37,43.42 -170.699999,30.13 a 7.53,7.53 0 0 1 -8.71,-6.1 l -3.14,-17.83 H 159.86515 a 2.5,2.5 0 0 0 1.77,-0.73 l 49.57,-49.57 a 2.49,2.49 0 0 0 0.39,-0.53 l 0.08,-0.15 a 2.49,2.49 0 0 0 0.21,-0.58 c 0,0 0,-0.05 0,-0.08 a 2.5,2.5 0 0 0 0,-0.43 V 61.325151 l 23.94,135.749999 a 7.52,7.52 0 0 1 -6.05,8.71 z"
     id="path253"
     inkscape:connector-curvature="0"
     style="fill:#263238" />
  <path
     class="cls-6"
     d="M 58.695151,75.685151 H 186.74515 a 2.5,2.5 0 0 0 0,-5 H 58.695151 a 2.5,2.5 0 0 0 0,5 z"
     id="path255"
     inkscape:connector-curvature="0"
     style="fill:#263238" />
  <path
     class="cls-6"
     d="M 38.805151,95.585151 H 186.74515 a 2.5,2.5 0 1 0 0,-5 H 38.805151 a 2.5,2.5 0 1 0 0,5 z"
     id="path257"
     inkscape:connector-curvature="0"
     style="fill:#263238" />
  <path
     class="cls-6"
     d="M 38.805151,115.49515 H 186.74515 a 2.5,2.5 0 0 0 0,-5 H 38.805151 a 2.5,2.5 0 1 0 0,5 z"
     id="path259"
     inkscape:connector-curvature="0"
     style="fill:#263238" />
  <path
     class="cls-6"
     d="M 38.805151,135.37515 H 186.74515 a 2.5,2.5 0 0 0 0,-5 H 38.805151 a 2.5,2.5 0 0 0 0,5 z"
     id="path261"
     inkscape:connector-curvature="0"
     style="fill:#263238" />
  <path
     class="cls-6"
     d="M 139.97515,150.27515 H 38.805151 a 2.5,2.5 0 0 0 0,5 H 139.97515 a 2.5,2.5 0 0 0 0,-5 z"
     id="path263"
     inkscape:connector-curvature="0"
     style="fill:#263238" />
  <path
     class="cls-6"
     d="M 139.97515,170.16515 H 38.805151 a 2.5,2.5 0 0 0 0,5 H 139.97515 a 2.5,2.5 0 0 0 0,-5 z"
     id="path265"
     inkscape:connector-curvature="0"
     style="fill:#263238" />
  <path
     class="cls-6"
     d="M 139.97515,190.06515 H 38.805151 a 2.5,2.5 0 0 0 0,5 H 139.97515 a 2.5,2.5 0 0 0 0,-5 z"
     id="path267"
     inkscape:connector-curvature="0"
     style="fill:#263238" />
  <path
     class="cls-5"
     d="m 231.59515,44.495151 h -4 v -4 a 1,1 0 0 0 -2,0 v 4 h -4 a 1,1 0 0 0 0,2 h 4 v 4 a 1,1 0 0 0 2,0 v -4 h 4 a 1,1 0 0 0 0,-2 z"
     id="path269"
     inkscape:connector-curvature="0"
     style="fill:#ffdd00" />
  <path
     class="cls-1"
     d="m 225.59515,12.995151 h -4 V 8.9951508 a 1,1 0 0 0 -2,0 v 4.0000002 h -4 a 1,1 0 0 0 0,2 h 4 v 4 a 1,1 0 0 0 2,0 v -4 h 4 a 1,1 0 0 0 0,-2 z"
     id="path271"
     inkscape:connector-curvature="0"
     style="fill:#40bdff" />
  <path
     class="cls-1"
     d="m 228.49515,83.285151 a 6,6 0 1 1 6,-6 6,6 0 0 1 -6,6 z m 0,-10 a 4,4 0 1 0 4,4 4,4 0 0 0 -4,-4 z"
     id="path273"
     inkscape:connector-curvature="0"
     style="fill:#40bdff" />
</svg>
