<?xml version="1.0" encoding="UTF-8" standalone="no"?>
<svg
   xmlns:dc="http://purl.org/dc/elements/1.1/"
   xmlns:cc="http://creativecommons.org/ns#"
   xmlns:rdf="http://www.w3.org/1999/02/22-rdf-syntax-ns#"
   xmlns:svg="http://www.w3.org/2000/svg"
   xmlns="http://www.w3.org/2000/svg"
   xmlns:sodipodi="http://sodipodi.sourceforge.net/DTD/sodipodi-0.dtd"
   xmlns:inkscape="http://www.inkscape.org/namespaces/inkscape"
   enable-background="new 0 0 50 50"
   id="Layer_1"
   version="1.1"
   viewBox="0 0 48 48"
   xml:space="preserve"
   sodipodi:docname="ok.svg"
   width="40"
   height="40"
   inkscape:version="0.92.4 (5da689c313, 2019-01-14)"><metadata
     id="metadata3803"><rdf:RDF><cc:Work
         rdf:about=""><dc:format>image/svg+xml</dc:format><dc:type
           rdf:resource="http://purl.org/dc/dcmitype/StillImage" /><dc:title></dc:title></cc:Work></rdf:RDF></metadata><defs
     id="defs3801" /><sodipodi:namedview
     pagecolor="#ffffff"
     bordercolor="#666666"
     borderopacity="1"
     objecttolerance="10"
     gridtolerance="10"
     guidetolerance="10"
     inkscape:pageopacity="0"
     inkscape:pageshadow="2"
     inkscape:window-width="696"
     inkscape:window-height="480"
     id="namedview3799"
     showgrid="false"
     fit-margin-top="0"
     fit-margin-left="0"
     fit-margin-right="0"
     fit-margin-bottom="0"
     inkscape:zoom="4.72"
     inkscape:cx="56.309322"
     inkscape:cy="24"
     inkscape:window-x="0"
     inkscape:window-y="0"
     inkscape:window-maximized="0"
     inkscape:current-layer="Layer_1" /><g
     id="OK_1_"
     transform="translate(-1,-1)"><path
       d="m 32,25 c -1,0 -3,2 -7,2 -4,0 -6,-2 -7,-2 -1.1,0 -2,0.9 -2,2 0,1 0.6,1.5 1,1.7 1.2,0.7 5,2.3 5,2.3 l -4.3,5.4 c 0,0 -0.8,0.9 -0.8,1.6 0,1.1 0.9,2 2,2 1,0 1.5,-0.7 1.5,-0.7 0,0 4.6,-5.3 4.6,-5.3 0,0 4.5,5.3 4.5,5.3 0,0 0.5,0.7 1.5,0.7 1.1,0 2,-0.9 2,-2 0,-0.6 -0.8,-1.6 -0.8,-1.6 L 28,31 c 0,0 3.8,-1.6 5,-2.3 0.4,-0.3 1,-0.7 1,-1.7 0,-1.1 -0.9,-2 -2,-2 z"
       id="K_1_"
       inkscape:connector-curvature="0"
       style="fill:#ffffff" /><path
       d="m 25,10 c -3.9,0 -7,3.1 -7,7 0,3.9 3.1,7 7,7 3.9,0 7,-3.1 7,-7 0,-3.9 -3.1,-7 -7,-7 z m 0,10.5 c -1.9,0 -3.5,-1.6 -3.5,-3.5 0,-1.9 1.6,-3.5 3.5,-3.5 1.9,0 3.5,1.6 3.5,3.5 0,1.9 -1.6,3.5 -3.5,3.5 z"
       id="O_1_"
       inkscape:connector-curvature="0"
       style="fill:#ffffff" /></g><path
     d="M 24,0 C 10.7,0 0,10.7 0,24 0,37.3 10.7,48 24,48 37.3,48 48,37.3 48,24 48,10.7 37.3,0 24,0 Z m 0,43 C 13.5,43 5,34.5 5,24 5,13.5 13.5,5 24,5 34.5,5 43,13.5 43,24 43,34.5 34.5,43 24,43 Z"
     id="path3796"
     inkscape:connector-curvature="0"
     style="fill:#ffffff" /></svg>