<?xml version="1.0" encoding="UTF-8" standalone="no"?>
<svg
   xmlns:dc="http://purl.org/dc/elements/1.1/"
   xmlns:cc="http://creativecommons.org/ns#"
   xmlns:rdf="http://www.w3.org/1999/02/22-rdf-syntax-ns#"
   xmlns:svg="http://www.w3.org/2000/svg"
   xmlns="http://www.w3.org/2000/svg"
   xmlns:sodipodi="http://sodipodi.sourceforge.net/DTD/sodipodi-0.dtd"
   xmlns:inkscape="http://www.inkscape.org/namespaces/inkscape"
   height="1408"
   viewBox="0 0 1408 1408"
   width="1408"
   version="1.1"
   id="svg22"
   sodipodi:docname="plus-square.svg"
   inkscape:version="0.92.4 (5da689c313, 2019-01-14)">
  <metadata
     id="metadata28">
    <rdf:RDF>
      <cc:Work
         rdf:about="">
        <dc:format>image/svg+xml</dc:format>
        <dc:type
           rdf:resource="http://purl.org/dc/dcmitype/StillImage" />
        <dc:title></dc:title>
      </cc:Work>
    </rdf:RDF>
  </metadata>
  <defs
     id="defs26" />
  <sodipodi:namedview
     pagecolor="#ffffff"
     bordercolor="#666666"
     borderopacity="1"
     objecttolerance="10"
     gridtolerance="10"
     guidetolerance="10"
     inkscape:pageopacity="0"
     inkscape:pageshadow="2"
     inkscape:window-width="1366"
     inkscape:window-height="706"
     id="namedview24"
     showgrid="false"
     fit-margin-top="0"
     fit-margin-left="0"
     fit-margin-right="0"
     fit-margin-bottom="0"
     inkscape:zoom="0.29966518"
     inkscape:cx="704"
     inkscape:cy="640"
     inkscape:window-x="-8"
     inkscape:window-y="-8"
     inkscape:window-maximized="1"
     inkscape:current-layer="svg22" />
  <path
     d="m 1152,672 v 64 q 0,14 -9,23 -9,9 -23,9 H 768 v 352 q 0,14 -9,23 -9,9 -23,9 h -64 q -14,0 -23,-9 -9,-9 -9,-23 V 768 H 288 q -14,0 -23,-9 -9,-9 -9,-23 v -64 q 0,-14 9,-23 9,-9 23,-9 H 640 V 288 q 0,-14 9,-23 9,-9 23,-9 h 64 q 14,0 23,9 9,9 9,23 v 352 h 352 q 14,0 23,9 9,9 9,23 z m 128,448 V 288 q 0,-66 -47,-113 -47,-47 -113,-47 H 288 q -66,0 -113,47 -47,47 -47,113 v 832 q 0,66 47,113 47,47 113,47 h 832 q 66,0 113,-47 47,-47 47,-113 z m 128,-832 v 832 q 0,119 -84.5,203.5 Q 1239,1408 1120,1408 H 288 Q 169,1408 84.5,1323.5 0,1239 0,1120 V 288 Q 0,169 84.5,84.5 169,0 288,0 h 832 Q 1239,0 1323.5,84.5 1408,169 1408,288 Z"
     id="path20"
     inkscape:connector-curvature="0" fill="#5f2fb6" />
</svg>
