<?xml version="1.0" encoding="UTF-8" standalone="no"?>
<svg
   xmlns:dc="http://purl.org/dc/elements/1.1/"
   xmlns:cc="http://creativecommons.org/ns#"
   xmlns:rdf="http://www.w3.org/1999/02/22-rdf-syntax-ns#"
   xmlns:svg="http://www.w3.org/2000/svg"
   xmlns="http://www.w3.org/2000/svg"
   xmlns:sodipodi="http://sodipodi.sourceforge.net/DTD/sodipodi-0.dtd"
   xmlns:inkscape="http://www.inkscape.org/namespaces/inkscape"
   data-name="Layer 1"
   id="Layer_1"
   viewBox="0 0 230.17 241.04518"
   version="1.1"
   sodipodi:docname="sertificate.svg"
   width="230.17"
   height="241.04518"
   inkscape:version="0.92.4 (5da689c313, 2019-01-14)">
  <metadata
     id="metadata538">
    <rdf:RDF>
      <cc:Work
         rdf:about="">
        <dc:format>image/svg+xml</dc:format>
        <dc:type
           rdf:resource="http://purl.org/dc/dcmitype/StillImage" />
        <dc:title></dc:title>
      </cc:Work>
    </rdf:RDF>
  </metadata>
  <sodipodi:namedview
     pagecolor="#ffffff"
     bordercolor="#666666"
     borderopacity="1"
     objecttolerance="10"
     gridtolerance="10"
     guidetolerance="10"
     inkscape:pageopacity="0"
     inkscape:pageshadow="2"
     inkscape:window-width="1366"
     inkscape:window-height="706"
     id="namedview536"
     showgrid="false"
     fit-margin-top="0"
     fit-margin-left="0"
     fit-margin-right="0"
     fit-margin-bottom="0"
     inkscape:zoom="0.921875"
     inkscape:cx="114"
     inkscape:cy="120.54517"
     inkscape:window-x="-8"
     inkscape:window-y="-8"
     inkscape:window-maximized="1"
     inkscape:current-layer="Layer_1" />
  <defs
     id="defs487">
    <style
       id="style485">.cls-1{fill:#effafe;}.cls-2{fill:#fd0;}.cls-3{fill:#efc803;}.cls-4{fill:#e4ebed;}.cls-5{fill:#eb5639;}.cls-6{fill:#d84936;}.cls-7{fill:#263238;}.cls-8{fill:#40bdff;}</style>
  </defs>
  <path
     class="cls-1"
     d="m 171,209.88 1.3,7.35 h 13.32 a 7.19,7.19 0 0 0 7.19,-7.19 V 22.87 h -16.36 a 2,2 0 0 1 -2,-2 V 4.5 H 47.36 a 7.19,7.19 0 0 0 -7.17,7.19 v 198.36 a 7.19,7.19 0 0 0 7.17,7.19 h 81.41 l 1.3,-7.35 a 24.13,24.13 0 1 1 40.93,0 z M 63.33,30.05 a 2,2 0 0 1 2,-2 h 97.34 a 2,2 0 0 1 0,4 H 65.33 a 2,2 0 0 1 -2,-2 z M 47,132.6 h 115.67 a 2,2 0 1 1 0,4 H 47 a 2,2 0 0 1 0,-4 z m 134,-73 H 56.15 a 2,2 0 0 1 0,-4 H 181 a 2,2 0 0 1 0,4 z m 0,25.67 H 47 a 2,2 0 0 1 0,-4 h 134 a 2,2 0 0 1 0,4 z M 47,106.94 h 134 a 2,2 0 1 1 0,4 H 47 a 2,2 0 0 1 0,-4 z"
     id="path491"
     inkscape:connector-curvature="0"
     style="fill:#effafe" />
  <path
     class="cls-2"
     d="m 150.54,217.23 a 20.13,20.13 0 1 0 -20.13,-20.13 20.11,20.11 0 0 0 20.13,20.13 z"
     id="path493"
     inkscape:connector-curvature="0"
     style="fill:#ffdd00" />
  <path
     class="cls-3"
     d="m 150.54,176.97 c -0.51,0 -1,0 -1.5,0.08 a 20.11,20.11 0 0 1 0,40.12 c 0.5,0 1,0.08 1.5,0.08 a 20.135,20.135 0 1 0 0,-40.27 z"
     id="path495"
     inkscape:connector-curvature="0"
     style="fill:#efc803" />
  <path
     class="cls-4"
     d="m 187.81,22.87 v 187.18 a 7.19,7.19 0 0 1 -7.19,7.19 h 5 a 7.19,7.19 0 0 0 7.19,-7.19 V 22.87 Z"
     id="path497"
     inkscape:connector-curvature="0"
     style="fill:#e4ebed" />
  <path
     class="cls-5"
     d="m 162.42,230.77 a 2,2 0 0 1 1.76,-0.31 l 6.76,2 -2.28,-12.88 v 0 c -0.93,-5.29 -0.76,-4.33 -1,-5.49 a 24.58,24.58 0 0 1 -13.4,6.83 l 2.48,14 z"
     id="path499"
     inkscape:connector-curvature="0"
     style="fill:#eb5639" />
  <path
     class="cls-5"
     d="m 133.39,214.15 -3.24,18.35 6.76,-2 a 2,2 0 0 1 1.76,0.31 l 5.66,4.19 2.47,-14 c -6.72,-1.22 -10.04,-3.9 -13.41,-6.85 z"
     id="path501"
     inkscape:connector-curvature="0"
     style="fill:#eb5639" />
  <path
     class="cls-6"
     d="m 165.66,219.59 v 0 l 2.11,11.91 3.17,0.94 -2.28,-12.88 v 0 c -0.93,-5.29 -0.76,-4.33 -1,-5.49 a 33.52,33.52 0 0 1 -2.6,2.19 z"
     id="path503"
     inkscape:connector-curvature="0"
     style="fill:#d84936" />
  <path
     class="cls-6"
     d="m 133.39,214.15 -0.38,2.18 a 23.08,23.08 0 0 0 10.8,4.62 l -2.13,12.06 2.65,2 2.47,-14 c -6.72,-1.23 -10.04,-3.91 -13.41,-6.86 z"
     id="path505"
     inkscape:connector-curvature="0"
     style="fill:#d84936" />
  <polygon
     class="cls-1"
     points="203.98,26.37 192.45,14.84 192.45,26.37 "
     id="polygon507"
     style="fill:#effafe"
     transform="translate(-14,-7.5)" />
  <path
     class="cls-7"
     d="M 197.31,210.05 V 20.87 A 2.66,2.66 0 0 0 196.58,19.1 L 178.21,0.73 A 2.61,2.61 0 0 0 176.44,0 H 42.36 A 11.69,11.69 0 0 0 30.69,11.69 v 198.36 a 11.69,11.69 0 0 0 11.67,11.69 h 85.11 l -2.32,13.15 a 2.5,2.5 0 0 0 3.17,2.83 l 8.66,-2.58 7.25,5.38 a 2.5,2.5 0 0 0 4,-1.57 l 2.34,-13.28 2.34,13.28 a 2.5,2.5 0 0 0 3.95,1.58 l 7.26,-5.38 8.66,2.58 a 2.5,2.5 0 0 0 3.17,-2.83 l -2.32,-13.15 h 12 a 11.7,11.7 0 0 0 11.68,-11.7 z M 178.95,8.5 l 9.82,9.82 h -9.82 z M 144,234.08 l -5,-3.71 a 2.5,2.5 0 0 0 -2.2,-0.39 l -6,1.78 2.94,-16.66 v 0 a 24.42,24.42 0 0 0 12.48,6.22 z m 6.56,-17.35 a 19.63,19.63 0 1 1 19.63,-19.63 19.63,19.63 0 0 1 -19.65,19.63 z m 13.78,13.25 a 2.49,2.49 0 0 0 -2.2,0.39 l -5,3.72 -2.25,-12.74 v 0 a 25,25 0 0 0 12.47,-6.24 v 0 l 2.95,16.68 z m 8.4,-13.25 -1.19,-6.75 a 24.63,24.63 0 1 0 -42,0 l -1.19,6.75 h -86 a 6.69,6.69 0 0 1 -6.67,-6.69 V 11.69 A 6.69,6.69 0 0 1 42.36,5 h 131.59 v 15.87 a 2.5,2.5 0 0 0 2.5,2.5 h 15.86 v 186.68 a 6.69,6.69 0 0 1 -6.69,6.69 z"
     id="path509"
     inkscape:connector-curvature="0"
     style="fill:#263238" />
  <path
     class="cls-7"
     d="m 65.33,32.55 h 97.34 a 2.5,2.5 0 0 0 0,-5 H 65.33 a 2.5,2.5 0 0 0 0,5 z"
     id="path511"
     inkscape:connector-curvature="0"
     style="fill:#263238" />
  <path
     class="cls-7"
     d="M 181,55.1 H 56.15 a 2.5,2.5 0 0 0 0,5 H 181 a 2.5,2.5 0 0 0 0,-5 z"
     id="path513"
     inkscape:connector-curvature="0"
     style="fill:#263238" />
  <path
     class="cls-7"
     d="M 181,80.77 H 47 a 2.5,2.5 0 0 0 0,5 h 134 a 2.5,2.5 0 0 0 0,-5 z"
     id="path515"
     inkscape:connector-curvature="0"
     style="fill:#263238" />
  <path
     class="cls-7"
     d="M 181,106.44 H 47 a 2.5,2.5 0 0 0 0,5 h 134 a 2.5,2.5 0 1 0 0,-5 z"
     id="path517"
     inkscape:connector-curvature="0"
     style="fill:#263238" />
  <path
     class="cls-7"
     d="M 162.67,132.1 H 47 a 2.5,2.5 0 0 0 0,5 h 115.67 a 2.5,2.5 0 1 0 0,-5 z"
     id="path519"
     inkscape:connector-curvature="0"
     style="fill:#263238" />
  <path
     class="cls-2"
     d="m 17,80.75 h -4 v -4 a 1,1 0 0 0 -2,0 v 4 H 7 a 1,1 0 0 0 0,2 h 4 v 4 a 1,1 0 0 0 2,0 v -4 h 4 a 1,1 0 0 0 0,-2 z"
     id="path521"
     inkscape:connector-curvature="0"
     style="fill:#ffdd00" />
  <path
     class="cls-2"
     d="M 11,181.97 H 7 v -4 a 1,1 0 0 0 -2,0 v 4 H 1 a 1,1 0 0 0 0,2 h 4 v 4 a 1,1 0 0 0 2,0 v -4 h 4 a 1,1 0 0 0 0,-2 z"
     id="path523"
     inkscape:connector-curvature="0"
     style="fill:#ffdd00" />
  <path
     class="cls-8"
     d="m 23.49,14.74 h -4 v -4 a 1,1 0 0 0 -2,0 v 4 h -4 a 1,1 0 0 0 0,2 h 4 v 4 a 1,1 0 0 0 2,0 v -4 h 4 a 1,1 0 0 0 0,-2 z"
     id="path525"
     inkscape:connector-curvature="0"
     style="fill:#40bdff" />
  <path
     class="cls-8"
     d="m 221,86.75 h -4 v -4 a 1,1 0 0 0 -2,0 v 4 h -4 a 1,1 0 0 0 0,2 h 4 v 4 a 1,1 0 0 0 2,0 v -4 h 4 a 1,1 0 0 0 0,-2 z"
     id="path527"
     inkscape:connector-curvature="0"
     style="fill:#40bdff" />
  <path
     class="cls-2"
     d="m 222,155.1 a 6,6 0 1 1 6,-6 6,6 0 0 1 -6,6 z m 0,-10 a 4,4 0 1 0 4,4 4,4 0 0 0 -4,-4 z"
     id="path529"
     inkscape:connector-curvature="0"
     style="fill:#ffdd00" />
  <path
     class="cls-2"
     d="m 224.17,29.43 a 6,6 0 1 1 6,-6 6,6 0 0 1 -6,6 z m 0,-10 a 4,4 0 1 0 4,4 4,4 0 0 0 -4,-4 z"
     id="path531"
     inkscape:connector-curvature="0"
     style="fill:#ffdd00" />
  <path
     class="cls-8"
     d="m 23,217.5 h -2.59 l 1.83,-1.83 a 1,1 0 0 0 -1.41,-1.41 L 19,216.09 v -2.59 a 1,1 0 0 0 -2,0 v 2.59 l -1.83,-1.83 a 1,1 0 0 0 -1.41,1.41 l 1.83,1.83 H 13 a 1,1 0 0 0 0,2 h 2.59 l -1.83,1.83 a 1,1 0 0 0 1.41,1.41 L 17,220.91 v 2.59 a 1,1 0 0 0 2,0 v -2.59 l 1.83,1.83 a 1,1 0 0 0 1.41,-1.41 L 20.41,219.5 H 23 a 1,1 0 0 0 0,-2 z"
     id="path533"
     inkscape:connector-curvature="0"
     style="fill:#40bdff" />
</svg>
